<svg width="141" height="50" fill="none" xmlns="http://www.w3.org/2000/svg">

    <style>.red {fill:#F05A50;}</style>
    <g>
        <path d="M7.655 23.375c.175-.114.353-.227.538-.331 5.062-2.893 6.091-4.636 6.112-10.372a9.21 9.21 0 0 1 1.343-4.748 9.479 9.479 0 0 1 3.62-3.424 9.74 9.74 0 0 1 4.896-1.15 9.72 9.72 0 0 1 4.815 1.439 15.755 15.755 0 0 1 4.142-1.012A13.08 13.08 0 0 0 26.485.258a13.26 13.26 0 0 0-7.516.685 12.94 12.94 0 0 0-5.858 4.656 12.52 12.52 0 0 0-2.225 7.058c-.019 4.563-.391 5.193-4.418 7.493-.12.07-.238.136-.355.21a6.888 6.888 0 0 0 1.542 3.015Z" class="red"></path>



        <path d="M14.336 37.942a9.051 9.051 0 0 1-.026-.621c-.028-5.736-1.059-7.476-6.122-10.37a9.464 9.464 0 0 1-3.533-3.51 9.204 9.204 0 0 1-1.222-4.78 9.217 9.217 0 0 1 1.427-4.726 9.49 9.49 0 0 1 3.682-3.362 14.93 14.93 0 0 1 1.18-4.015 13.04 13.04 0 0 0-6.439 3.862 12.59 12.59 0 0 0-3.155 6.714 12.469 12.469 0 0 0 1.195 7.296 12.825 12.825 0 0 0 5.14 5.414c4.03 2.298 4.401 2.929 4.424 7.492 0 .136 0 .272.01.407a7.26 7.26 0 0 0 3.439.199Z" class="red"></path>

        <path d="M30.552 39.564a9.988 9.988 0 0 1-.563-.288c-5.09-2.845-7.15-2.845-12.239 0a9.736 9.736 0 0 1-4.873 1.237 9.727 9.727 0 0 1-4.842-1.354 9.454 9.454 0 0 1-3.468-3.57 9.199 9.199 0 0 1-1.136-4.8 15.273 15.273 0 0 1-2.966-3.004 12.45 12.45 0 0 0 .2 7.386 12.72 12.72 0 0 0 4.366 6.03 13.161 13.161 0 0 0 7.056 2.635 13.225 13.225 0 0 0 7.361-1.65c4.05-2.265 4.794-2.266 8.843 0 .12.066.242.135.363.194a6.929 6.929 0 0 0 1.898-2.816Z" class="red"></path>

        <path d="M40.1 26.62a8.741 8.741 0 0 1-.536.331c-5.063 2.893-6.093 4.638-6.112 10.374a9.211 9.211 0 0 1-1.344 4.746 9.48 9.48 0 0 1-3.62 3.423 9.74 9.74 0 0 1-4.894 1.152 9.722 9.722 0 0 1-4.815-1.438 15.82 15.82 0 0 1-4.142 1.01 13.08 13.08 0 0 0 6.638 3.523c2.52.506 5.138.267 7.52-.684a12.94 12.94 0 0 0 5.86-4.661 12.519 12.519 0 0 0 2.22-7.063c.02-4.563.391-5.194 4.419-7.493.119-.068.237-.136.354-.21a6.889 6.889 0 0 0-1.548-3.01Z" class="red"></path>

        <path d="M33.441 12.053c.014.206.026.408.026.622.027 5.735 1.058 7.475 6.122 10.369a9.464 9.464 0 0 1 3.532 3.511 9.203 9.203 0 0 1 1.222 4.78 9.215 9.215 0 0 1-1.427 4.725 9.489 9.489 0 0 1-3.682 3.362 14.97 14.97 0 0 1-1.17 4.015 13.042 13.042 0 0 0 6.435-3.864 12.592 12.592 0 0 0 3.153-6.714 12.471 12.471 0 0 0-1.195-7.295 12.826 12.826 0 0 0-5.14-5.412c-4.029-2.299-4.401-2.93-4.423-7.492 0-.136 0-.272-.009-.408a7.263 7.263 0 0 0-3.444-.199Z" class="red"></path>

        <path d="M17.207 10.432c.189.091.378.185.556.288 5.091 2.845 7.15 2.845 12.24 0a9.737 9.737 0 0 1 4.874-1.237c1.708.02 3.38.489 4.841 1.355a9.455 9.455 0 0 1 3.469 3.572 9.2 9.2 0 0 1 1.135 4.8 15.388 15.388 0 0 1 2.966 3.003 12.451 12.451 0 0 0-.201-7.384 12.721 12.721 0 0 0-4.364-6.027 13.162 13.162 0 0 0-7.052-2.637 13.226 13.226 0 0 0-7.36 1.645c-4.05 2.266-4.793 2.266-8.842 0-.121-.067-.242-.136-.364-.194a6.943 6.943 0 0 0-1.898 2.816Z" class="red"></path>
    </g>
</svg>